<svg xmlns="http://www.w3.org/2000/svg" viewBox="0 0 100 100" height="100" width="100"><path d="M36.86,43.78c-.09-.27-.13-.31-.5-.31H34.5c-.31,0-.38,0-.47.29l-.43,1.29a4.68,4.68,0,0,0-.27,1c0,.15.06.22.36.25l.4,0a.2.2,0,0,1,0,.31c-.32,0-.7,0-1.28,0-.4,0-.85,0-1.18,0a.24.24,0,0,1,0-.31l.4,0a.81.81,0,0,0,.74-.6c.22-.56.56-1.36,1.08-2.73l1.25-3.31a1.76,1.76,0,0,0,.21-.87,1.37,1.37,0,0,0,.64-.47.17.17,0,0,1,.18.11c.16.54.36,1.1.54,1.64L38.32,45c.36,1.05.52,1.24,1,1.3l.33,0a.24.24,0,0,1,0,.31c-.5,0-.93,0-1.48,0s-1.05,0-1.41,0a.21.21,0,0,1,0-.31l.36,0c.26,0,.43-.1.43-.22a2.51,2.51,0,0,0-.16-.65Zm-2.43-1.09c-.1.28-.09.29.26.29H36.2c.36,0,.38,0,.27-.38l-.66-2a8.08,8.08,0,0,0-.28-.77h0a7.47,7.47,0,0,0-.29.72Z"/><path d="M41.08,40.13c0-.86-.06-1.12-.58-1.19l-.27,0a.18.18,0,0,1,0-.31c1-.06,2-.1,3.08-.1a7.69,7.69,0,0,1,2.7.37,3.67,3.67,0,0,1,2.49,3.62,4,4,0,0,1-2.15,3.65,5.92,5.92,0,0,1-2.75.59c-.78,0-1.57-.1-2-.1s-1,0-1.53,0a.24.24,0,0,1,0-.31l.28,0c.71-.1.74-.25.74-1.53Zm1,4.38a2.27,2.27,0,0,0,.25,1.34c.27.38.74.5,1.51.5,2.38,0,3.45-1.56,3.45-3.84,0-1.35-.65-3.63-3.86-3.63a2.73,2.73,0,0,0-1.21.17c-.1.07-.12.38-.12.93Z"/><path d="M49.63,42.67A4.24,4.24,0,0,1,54,38.34a4,4,0,0,1,4.25,4.21A4.19,4.19,0,0,1,54,46.82,4.13,4.13,0,0,1,49.63,42.67Zm7.39.26c0-2-.9-4.21-3.24-4.21-1.28,0-2.93.87-2.93,3.56,0,1.81.88,4.17,3.3,4.17C55.63,46.44,57,45.34,57,42.92Z"/><path d="M60.38,40.13c0-.91,0-1.14-.6-1.19l-.39,0a.2.2,0,0,1,0-.31c.66-.06,1.5-.1,2.64-.1a4.66,4.66,0,0,1,2.06.34A1.61,1.61,0,0,1,65,40.37a1.77,1.77,0,0,1-1.25,1.68c0,.12.1.16.23.18a2,2,0,0,1,1.64,2c0,1.42-1.05,2.38-3.26,2.38-.36,0-1,0-1.47,0s-1,0-1.41,0a.24.24,0,0,1,0-.31l.22,0c.65-.11.67-.25.67-1.53Zm1,1.63c0,.34,0,.37.64.34,1.25,0,1.92-.42,1.92-1.57a1.62,1.62,0,0,0-1.83-1.66,1.51,1.51,0,0,0-.56.07c-.12,0-.17.1-.17.32Zm0,2.84a2.4,2.4,0,0,0,.26,1.34,1.19,1.19,0,0,0,1,.34c1.09,0,1.92-.49,1.92-1.72,0-1-.49-2.1-2.44-2.1-.66,0-.71.07-.71.32Z"/><path d="M67.8,40.37c0-1.28,0-1.46-.75-1.54l-.2,0c-.07,0,0-.27,0-.31.53,0,.94,0,1.45,0h2.3a16.46,16.46,0,0,0,1.65,0,13.72,13.72,0,0,1,.2,1.63.24.24,0,0,1-.31,0c-.18-.58-.29-1-.93-1.16a5.86,5.86,0,0,0-1.19-.07h-.88c-.37,0-.37,0-.37.49v2.45c0,.34,0,.34.4.34h.71a4.55,4.55,0,0,0,1-.07c.15,0,.23-.12.29-.43l.1-.5a.24.24,0,0,1,.32,0c0,.29,0,.77,0,1.24s0,.91,0,1.18a.24.24,0,0,1-.32,0l-.11-.48a.52.52,0,0,0-.38-.47,4.1,4.1,0,0,0-.94-.06h-.71c-.37,0-.4,0-.4.33v1.73c0,.65,0,1.07.23,1.27s.4.28,1.48.28a3.59,3.59,0,0,0,1.57-.18A3.08,3.08,0,0,0,73,44.87a.23.23,0,0,1,.31.09,10.69,10.69,0,0,1-.55,1.7c-1.1,0-2.19,0-3.29,0h-1.1c-.53,0-.94,0-1.67,0a.24.24,0,0,1,0-.31l.4,0c.7-.06.76-.25.76-1.53Z"/><path d="M31.73,55a4.24,4.24,0,0,1,4.36-4.33,4,4,0,0,1,4.25,4.21,4.19,4.19,0,0,1-4.25,4.28A4.13,4.13,0,0,1,31.73,55Zm7.39.26c0-2-.9-4.21-3.24-4.21-1.28,0-2.93.87-2.93,3.56,0,1.81.88,4.17,3.3,4.17C37.72,58.76,39.12,57.66,39.12,55.24Z"/><path d="M42.48,52.7c0-1.16,0-1.37-.54-1.43l-.39,0a.2.2,0,0,1,0-.31c.69-.06,1.53-.1,2.73-.1a4.34,4.34,0,0,1,2,.37,1.83,1.83,0,0,1,1,1.72,2.27,2.27,0,0,1-1.53,2c-.06.07,0,.2.06.29a13.22,13.22,0,0,0,2.46,3.26,1.47,1.47,0,0,0,.85.34.1.1,0,0,1,0,.17,1.91,1.91,0,0,1-.54.06c-1,0-1.67-.31-2.54-1.54-.32-.45-.82-1.3-1.2-1.85a.87.87,0,0,0-.87-.39c-.55,0-.58,0-.58.27v1.54c0,1.29,0,1.43.74,1.53l.26,0a.24.24,0,0,1,0,.31c-.55,0-1,0-1.46,0s-1,0-1.53,0a.24.24,0,0,1,0-.31l.31,0c.71-.09.74-.25.74-1.53Zm1,1.75a1,1,0,0,0,0,.4s.22.06.85.06a2.05,2.05,0,0,0,1.26-.32,1.76,1.76,0,0,0,.61-1.52,1.81,1.81,0,0,0-2-1.89c-.76,0-.8,0-.8.39Z"/><path d="M50.39,52.72c0-1.3,0-1.51-.75-1.57l-.31,0c-.07,0,0-.27,0-.31.61,0,1,0,1.54,0s.91,0,1.52,0c.07,0,.1.26,0,.31l-.31,0c-.72.06-.75.27-.75,1.57v4.36c0,1.3,0,1.47.75,1.56l.31,0c.07,0,0,.27,0,.31-.61,0-1,0-1.52,0s-.93,0-1.54,0a.24.24,0,0,1,0-.31l.31,0c.72-.09.75-.26.75-1.56Z"/><path d="M60.91,57.69c0,.49.07.78.29.87a.1.1,0,0,1,0,.15,2.75,2.75,0,0,0-.6.11,9.58,9.58,0,0,1-2.19.32,5.11,5.11,0,0,1-3.74-1.36A3.86,3.86,0,0,1,53.53,55a4.21,4.21,0,0,1,1.1-2.91,5.08,5.08,0,0,1,3.89-1.43,7.33,7.33,0,0,1,1.56.18,3.23,3.23,0,0,0,.76.11A13.8,13.8,0,0,0,61,52.73c0,.1-.26.11-.33,0A2.24,2.24,0,0,0,58.17,51a3.25,3.25,0,0,0-3.42,3.53c0,2.35,1.21,4.21,3.68,4.21.76,0,1.21-.16,1.35-.37a1.37,1.37,0,0,0,.12-.7V57.2c0-1,0-1.1-.8-1.19L58.56,56a.2.2,0,0,1,0-.31c.36,0,1,0,1.75,0,.48,0,.9,0,1.3,0a.21.21,0,0,1,0,.31l-.2,0c-.51.06-.53.4-.53,1Z"/><path d="M63.69,52.72c0-1.3,0-1.51-.75-1.57l-.31,0c-.07,0,0-.27,0-.31.61,0,1,0,1.54,0s.91,0,1.52,0c.07,0,.1.26,0,.31l-.31,0c-.72.06-.75.27-.75,1.57v4.36c0,1.3,0,1.47.75,1.56l.31,0c.07,0,0,.27,0,.31-.61,0-1,0-1.52,0s-.93,0-1.54,0a.24.24,0,0,1,0-.31l.31,0c.72-.09.75-.26.75-1.56Z"/><path d="M74.43,56.86c0,.37,0,1.83,0,2.15a.22.22,0,0,1-.23.13c-.15-.21-.5-.64-1.57-1.85l-2.84-3.24c-.33-.38-1.16-1.39-1.42-1.66h0a3.11,3.11,0,0,0-.06.8v2.67a9.6,9.6,0,0,0,.22,2.54c.07.13.32.21.63.23l.38,0a.22.22,0,0,1,0,.31c-.55,0-1,0-1.43,0s-.85,0-1.28,0a.23.23,0,0,1,0-.31l.33,0c.28,0,.48-.11.54-.25a11.83,11.83,0,0,0,.16-2.53V52.32a1.12,1.12,0,0,0-.27-.88,1.33,1.33,0,0,0-.76-.29l-.21,0a.21.21,0,0,1,0-.31c.51,0,1.16,0,1.39,0a4,4,0,0,0,.56,0,16.87,16.87,0,0,0,2.1,2.7l1.19,1.34c.85.94,1.45,1.63,2,2.22h0a1.23,1.23,0,0,0,0-.51V53.93a8.62,8.62,0,0,0-.25-2.54c-.07-.11-.27-.18-.76-.25l-.21,0c-.09-.07-.07-.27,0-.31.56,0,1,0,1.45,0s.85,0,1.26,0a.22.22,0,0,1,0,.31l-.17,0c-.39.06-.64.16-.69.26a9.89,9.89,0,0,0-.18,2.53Z"/><path d="M80.85,56.1c-.09-.27-.14-.31-.5-.31H78.5c-.31,0-.38,0-.47.29l-.43,1.29a4.69,4.69,0,0,0-.27,1c0,.15.06.22.36.25l.4,0a.2.2,0,0,1,0,.31c-.32,0-.7,0-1.28,0-.4,0-.85,0-1.18,0a.24.24,0,0,1,0-.31l.4,0a.82.82,0,0,0,.74-.6c.22-.56.56-1.36,1.08-2.73L79.06,52a1.76,1.76,0,0,0,.21-.87,1.38,1.38,0,0,0,.64-.47.17.17,0,0,1,.18.11c.16.54.36,1.1.54,1.64l1.68,4.93c.36,1.05.51,1.24,1,1.3l.33,0a.24.24,0,0,1,0,.31c-.5,0-.93,0-1.48,0s-1.05,0-1.41,0a.21.21,0,0,1,0-.31l.36,0c.26,0,.43-.1.43-.22a2.52,2.52,0,0,0-.16-.65ZM78.43,55c-.1.28-.09.29.26.29h1.51c.36,0,.38,0,.27-.38l-.66-2a8.12,8.12,0,0,0-.28-.77h0a7.41,7.41,0,0,0-.29.72Z"/><path d="M85.07,52.69c0-1.29,0-1.48-.8-1.54l-.31,0c-.07,0,0-.27,0-.31.69,0,1.1,0,1.59,0s.89,0,1.51,0c.07,0,.1.26,0,.31l-.29,0c-.72.06-.75.26-.75,1.54V57c0,.77,0,1.09.26,1.32s.37.28,1.34.28,1.3,0,1.5-.16A2.62,2.62,0,0,0,90,57.19c.07-.06.31,0,.31.07A9.83,9.83,0,0,1,89.77,59c-.63,0-1.79,0-3.05,0H85.59c-.51,0-.91,0-1.59,0a.24.24,0,0,1,0-.31l.37,0c.71-.07.74-.25.74-1.53Z"/><path d="M93,59.14a3.82,3.82,0,0,1-1.91-.45A5.65,5.65,0,0,1,90.78,57c.06-.09.25-.11.29,0a2.23,2.23,0,0,0,2.11,1.83,1.39,1.39,0,0,0,1.53-1.41,1.84,1.84,0,0,0-1-1.72l-1.16-.76a2.61,2.61,0,0,1-1.32-2.11,2.21,2.21,0,0,1,2.5-2.11,4.74,4.74,0,0,1,1.14.16,1.65,1.65,0,0,0,.43.07,5.36,5.36,0,0,1,.22,1.5c0,.07-.25.11-.31,0A1.61,1.61,0,0,0,93.54,51a1.28,1.28,0,0,0-1.46,1.36,1.93,1.93,0,0,0,1,1.51l1,.61a2.76,2.76,0,0,1,1.53,2.35A2.31,2.31,0,0,1,93,59.14Z"/><path d="M26,48.61c0-.43-.29-.57-.77-.57a10.51,10.51,0,0,0-2.63.53c-2.63.86-6.08,1.77-6.08,4.79,0,1.1.43,4.26,4.55,4.26a7,7,0,0,0,3.83-1.1c1-.67,1.05-1.53,1.05-3.16Zm.24-6.12c.1-3.59-1.48-5.46-4.5-5.46-2,0-3.83.38-4.5,3.16a3.14,3.14,0,0,1-.62,1.44,5.67,5.67,0,0,1-3.73,1.44c-.33,0-.72-.24-.72-.91a6.38,6.38,0,0,1,2.44-3.73,15.49,15.49,0,0,1,2.68-1.91c.77-.43.86-.43.86-.62s-.19-.24-.29-.24A14.88,14.88,0,0,0,8.19,40a13.72,13.72,0,0,0-3.83,10c0,8.09,5.84,14.45,14.4,14.45,3.83,0,9-1.77,11-4.35a6.91,6.91,0,0,1-3-1.67c-.91-.72-1.2-.72-2.49-.19s-4.12,2-6.32,2a5.52,5.52,0,0,1-5.84-5.36c0-2.58,1.58-4.59,5.07-5.74,2.2-.72,5.26-1.82,7.08-2.49s2-1.39,2-2.11Z"/></svg>
